<svg width="1427" height="480" viewBox="0 0 1427 480" fill="none" xmlns="http://www.w3.org/2000/svg">
<path d="M1500.14 274.94L1474.65 147.133L1474.94 147.077C1474.36 147.19 1417.58 158.169 1332.78 146.562C1267.39 137.682 1204.08 118.505 1143.3 89.3879C1145.54 45.6816 1143.04 5.47804 1138.27 -29.8507C1120.12 -164.029 1065.9 -257.034 1058.85 -268.632C1012.42 -348.207 956.653 -396.912 893.092 -413.262C827.81 -430.096 776.866 -407.115 752.29 -391.965C672.098 -342.436 644.637 -236.68 689.823 -151.163C733.703 -68.0697 817.591 21.4876 939.207 114.783C961.735 132.027 984.102 147.562 1006.25 161.562C987.882 247.111 946.273 328.197 881.598 404.055C871.755 415.654 834.831 456.409 774.302 495.409C699.982 543.33 619.999 569.586 536.713 573.427C363.531 581.477 180.749 492.59 -6.48077 309.392L-94.3171 403.769C119.006 612.543 333.257 713.493 542.42 703.807C792.853 692.168 948.686 523.606 977.347 489.923C1054.88 398.952 1098.97 307.395 1122.1 222.41C1327.02 309.506 1491.33 276.941 1500.14 275.058L1500.14 274.94ZM950.895 -199.673C952.941 -196.242 998.868 -118.614 1012.85 -6.91504C1013.57 -1.31231 1014.16 4.28965 1014.7 9.83225C882.164 -91.9651 825.653 -167.662 801.585 -213.319C789.096 -236.975 796.358 -267.035 817.82 -280.321C825.493 -285.04 841.456 -292.177 862.107 -286.849C891.421 -279.28 921.799 -249.725 949.928 -201.271L950.895 -199.673Z" fill="#4C84C2"/>
</svg>
