<svg width="163" height="131" viewBox="0 0 163 131" fill="none" xmlns="http://www.w3.org/2000/svg">
<g clip-path="url(#clip0_184_454)">
<path d="M103.069 29.6387C103.14 27.8597 102.977 26.05 103.061 24.2709C103.36 17.8384 104.907 12.361 109.326 7.541C113.53 2.9532 121.387 -0.762615 127.719 0.161957C133.079 0.946309 133.835 9.25869 127.675 10.7222C125.243 11.3006 123.7 10.972 121.185 12.1332C116.929 14.0963 114.414 18.1144 114.044 22.7373L113.996 76.288C113.13 82.2561 104.516 82.3393 103.39 77.1249C103.311 76.7656 103.074 75.2977 103.074 75.0348V68.1421H60.8057L60.4759 68.4707V76.564C60.4759 77.4974 59.1304 79.1449 58.383 79.7321C55.9514 81.647 52.8076 81.3709 50.807 78.9784C48.8064 76.5859 49.7693 73.098 49.7253 70.2147C49.5539 59.225 49.6242 48.2353 49.633 37.2237C49.6418 25.5986 47.7863 14.3548 57.5168 5.79703C61.4916 2.3003 69.0324 -0.731942 74.3659 0.153193C78.7673 0.884963 79.9501 7.42269 76.1379 9.91159C74.3 11.1122 72.4665 10.7091 70.5186 11.0947C65.3478 12.12 60.4759 17.3564 60.4759 22.7461V29.3101L60.8057 29.6387H103.074H103.069ZM103.069 40.5758H60.8013L60.4715 40.9045V56.8763L60.8013 57.205H103.069V40.5758Z" fill="white"/>
<path d="M1.47737 122.105C-2.7745 117.337 3.13502 112.855 6.82408 110.41C16.2468 104.161 26.0476 104.402 35.2901 110.843C39.4979 113.779 42.9056 118.411 48.1292 119.712C56.7956 121.868 60.9508 115.05 66.9878 110.843C76.9953 103.868 87.4601 104.323 97.1246 111.593C100.515 114.143 103.491 117.85 107.629 119.283C117.993 122.876 122.772 113.438 130.515 109.161C140.808 103.478 152.883 105.629 160.938 114.082C163.756 117.035 163.866 121.75 159.72 123.384C155.063 125.22 152.201 120.352 148.31 118.35C137.33 112.706 132.045 123.051 123.858 127.692C114.734 132.862 105.655 131.776 97.2917 125.864C92.6925 122.613 88.401 117.026 82.3156 116.72C75.3772 116.369 71.631 121.548 66.7196 125.238C59.0073 131.035 50.3145 132.88 41.2875 128.717C30.8535 123.906 25.3309 110.607 12.1752 119.901C9.44028 121.833 7.81779 124.808 3.86052 123.564C3.13502 123.336 1.97422 122.67 1.47737 122.109V122.105Z" fill="white"/>
<path d="M18.265 81.5551C24.3416 80.9373 29.8862 82.7733 34.8503 86.1254C40.3026 89.8106 44.2027 95.9101 51.5896 95.7217C58.1982 95.5508 62.4149 89.517 67.4275 86.1254C75.896 80.4027 84.8087 79.8725 93.7741 84.9555C102.74 90.0384 107.814 100.827 119.518 93.1802C126.505 88.6143 130.181 82.5498 139.687 81.5551C147.109 80.7795 157.253 84.6969 161.786 90.7045C163.532 93.0181 163.453 96.23 161.149 98.1229C156.215 102.172 152.456 96.0766 148.45 93.9295C137.458 88.0403 131.698 99.1176 123.348 103.561C114.277 108.39 105.787 107.185 97.5071 101.585C91.4481 97.4832 86.928 90.4328 78.4243 92.7201C73.5481 94.0303 70.18 98.3026 66.2447 101.151C58.1675 107.001 48.9382 108.482 39.8981 103.635C29.8642 98.2588 24.7505 86.1692 11.7355 95.8488C10.6626 96.6463 9.46664 98.1229 8.27946 98.7495C2.72169 101.681 -2.7921 94.9417 1.85989 89.9464C5.53575 85.9983 12.8743 82.1116 18.2606 81.5639L18.265 81.5551Z" fill="white"/>
</g>
<defs>
<clipPath id="clip0_184_454">
<rect width="163" height="131" fill="white"/>
</clipPath>
</defs>
</svg>
