<svg width="116" height="116" viewBox="0 0 116 116" fill="none" xmlns="http://www.w3.org/2000/svg">
<path d="M82.6793 1.07122C85.4774 0.866215 90.2849 1.07122 92.9137 2.05167C95.3776 2.96528 95.939 5.78185 94.1835 7.68037L82.3317 19.6107L84.8135 31.2915L96.3801 33.6624L108.945 21.3354C112.745 19.6553 113.868 22.2312 114.47 25.4444C118.337 46.2122 100.35 64.2525 79.5648 60.5758C77.845 60.2728 76.1608 59.6221 74.4989 59.4127L27.3189 111.274C12.023 123.213 -7.2206 103.992 4.72921 88.6837L56.583 41.5016C56.3781 39.8348 55.7276 38.1502 55.4201 36.4344C52.328 18.911 64.8882 2.37255 82.6793 1.07122ZM84.5016 7.68482C68.9517 8.08146 58.1915 22.8952 62.6381 37.8962C64.0506 42.6647 65.4362 42.3305 61.3639 46.2969L9.96895 92.806C2.81332 101.987 14.224 113.24 23.3178 105.931L69.7047 54.6307C73.835 50.388 73.5721 52.0771 78.4509 53.4586C93.3191 57.6657 107.947 46.8629 108.312 31.492C105.398 33.756 102.921 37.3792 100.083 39.6164C98.8396 40.5969 98.2826 40.7083 96.692 40.5523C91.6528 40.0621 86.0521 37.9987 80.9371 37.397C79.9525 37.1118 79.1995 36.4834 78.7762 35.552C78.0187 30.3288 75.9469 24.4773 75.4434 19.3032C75.2875 17.7166 75.3989 17.1551 76.3791 15.9117C78.6202 13.0729 82.2337 10.5994 84.5016 7.68037V7.68482Z" fill="white" stroke="white"/>
<path d="M16.7994 95.1903C21.6604 94.3168 22.3377 101.372 17.8331 101.804C13.7875 102.192 12.8429 95.9034 16.7994 95.1903Z" fill="white" stroke="white"/>
</svg>
