<svg width="112" height="112" viewBox="0 0 112 112" fill="none" xmlns="http://www.w3.org/2000/svg">
<path d="M49.7564 20.5914L49.7595 53.1011C50.3089 57.5188 53.8135 60.8668 58.2333 61.2956L91.3098 61.2909C90.9737 58.2392 93.1446 54.7182 96.3598 54.4219C99.8412 54.1022 103.844 54.6433 107.38 54.4656C109.726 55.1205 111.529 57.0292 111.859 59.4899C111.846 70.1949 111.866 80.9327 111.845 91.6113C111.835 96.1958 112.109 101.123 111.919 105.652C111.803 108.423 109.628 110.877 106.88 111.273C104.628 111.599 99.1689 111.549 96.8376 111.34C94.1842 111.103 91.3098 108.601 91.3098 105.808V103.079L57.1439 103.085C30.4464 101.928 9.19896 80.6255 8.04422 53.8871L8.05045 20.5883H4.86014C4.21118 20.5883 2.16938 19.3159 1.67138 18.7935C-1.20457 15.7824 0.605349 8.589 0.150923 4.64224C0.86213 2.05057 3.0331 0.102918 5.78455 0H51.0854C53.6813 0.110715 56.0328 1.80731 56.7128 4.34128C57.1782 6.07218 57.0941 13.1767 56.9198 15.2179C56.7315 17.4181 54.3318 20.5914 52.0114 20.5914H49.7548H49.7564ZM49.7564 7.18089H7.11514V13.4199H49.7564V7.18245V7.18089ZM42.5976 20.5914H15.2076L15.2014 54.5139C16.6659 77.2947 34.86 94.967 57.6092 95.9151L91.1526 95.9089V68.464L58.2317 68.4703C51.0605 68.6543 42.5976 60.937 42.5976 53.728V20.5914ZM104.692 104.174L104.614 61.4469H98.7005L98.467 61.6808V104.174H104.692Z" fill="white"/>
</svg>
