<svg width="150" height="189" viewBox="0 0 150 189" fill="none" xmlns="http://www.w3.org/2000/svg">
<g clip-path="url(#clip0_188_562)">
<path d="M249 180.427H0V180.582H249V180.427Z" fill="white"/>
<path d="M118.275 20.5914L118.278 53.1011C118.827 57.5188 122.332 60.8668 126.752 61.2956L159.828 61.2909C159.492 58.2393 161.663 54.7182 164.878 54.4219C168.36 54.1022 172.362 54.6433 175.898 54.4656C178.245 55.1205 180.047 57.0292 180.377 59.4899C180.365 70.1949 180.385 80.9327 180.363 91.6113C180.354 96.1958 180.628 101.123 180.438 105.652C180.321 108.423 178.147 110.877 175.399 111.273C173.147 111.599 167.687 111.549 165.356 111.34C162.703 111.103 159.828 108.601 159.828 105.808V103.079L125.662 103.085C98.965 101.928 77.7175 80.6255 76.5628 53.8871L76.569 20.5883H73.3787C72.7297 20.5883 70.6879 19.3159 70.1899 18.7935C67.314 15.7824 69.1239 8.58899 68.6695 4.64224C69.3807 2.05057 71.5517 0.102918 74.3031 0H119.604C122.2 0.110715 124.551 1.80731 125.231 4.34128C125.697 6.07218 125.613 13.1767 125.438 15.2179C125.25 17.4181 122.85 20.5914 120.53 20.5914H118.273H118.275ZM118.275 7.18089H75.6337V13.4199H118.275V7.18245V7.18089ZM111.116 20.5914H83.7262L83.72 54.5139C85.1844 77.2947 103.379 94.967 126.128 95.9151L159.671 95.9089V68.464L126.75 68.4703C119.579 68.6543 111.116 60.937 111.116 53.728V20.5914ZM173.211 104.174L173.133 61.4469H167.219L166.986 61.6808V104.174H173.211Z" fill="white"/>
</g>
<defs>
<clipPath id="clip0_188_562">
<rect width="249" height="189" fill="white"/>
</clipPath>
</defs>
</svg>
