<svg width="153" height="153" viewBox="0 0 153 153" fill="none" xmlns="http://www.w3.org/2000/svg">
<g clip-path="url(#clip0_522_171)">
<path d="M90.5398 119.485V143.976H149.537C149.726 143.976 151.031 144.713 151.286 144.915C154.037 147.076 153.346 151.366 150.148 152.655C101.201 153.182 52.0472 153.018 3.06489 152.738C-0.185007 151.639 -1.10308 147.3 1.53594 145.041C1.80822 144.811 3.23943 143.976 3.45935 143.976H62.4567V119.485C60.2331 119.304 58.6762 118.288 57.8175 116.207L57.608 96.7011L48.183 77.7498C47.6384 74.2904 49.2756 72.2344 52.7314 71.9796C68.1606 70.8381 84.9756 72.8697 100.551 71.9796C103.794 72.1471 105.536 74.8629 104.73 77.9732L95.378 96.6976L95.2419 115.977C94.4739 118.162 92.8298 119.304 90.5294 119.482L90.5398 119.485ZM93.2277 80.9543H59.7723L65.0468 91.0635L87.4191 91.1299L88.4175 90.6342L93.2277 80.9578V80.9543ZM86.3579 100.07H66.6421V110.525H86.3579V100.07ZM81.5791 119.485H71.421V143.976H81.5791V119.485Z" fill="white"/>
<path d="M3.53613 72.0669C4.90451 71.8365 8.62915 71.826 10.0115 72.0215C15.0452 72.7371 15.1639 80.4307 9.45297 80.9683C8.09855 81.0975 5.10697 81.1184 3.79096 80.9299C-1.08214 80.2387 -1.21828 72.8663 3.53962 72.0669H3.53613Z" fill="white"/>
<path d="M142.737 72.0632C144.029 71.8293 147.886 71.8328 149.213 72.0213C154.246 72.7369 154.365 80.4306 148.654 80.9681C147.359 81.0903 144.21 81.1287 142.985 80.9367C138.15 80.1792 137.986 72.9289 142.737 72.0632Z" fill="white"/>
<path d="M88.0858 51.1467C91.1856 50.9059 93.486 53.8346 92.8612 56.8436C92.6867 57.6814 90.498 61.427 89.8906 62.2334C86.4277 66.8167 79.6696 63.2946 82.3156 57.3463C83.314 55.0983 85.4259 51.3562 88.0893 51.1467H88.0858Z" fill="white"/>
<path d="M75.5226 0.0803856C78.0569 -0.376904 80.5842 1.15205 80.9542 3.77012C81.1392 5.07217 81.1462 9.26458 80.839 10.4724C79.6731 15.0523 72.7614 14.6299 72.0353 9.99763C71.8329 8.71653 71.8713 4.25184 72.2169 3.04753C72.6183 1.65821 74.0914 0.335211 75.5191 0.0803856H75.5226Z" fill="white"/>
<path d="M64.1881 51.1466C65.7345 51.0279 67.0296 51.7295 67.993 52.8675C68.7366 53.7472 71.0789 57.7895 71.2918 58.8332C72.1296 62.9663 67.4834 65.9928 64.1043 63.3258C63.263 62.6626 60.4844 58.1176 60.2121 57.0634C59.486 54.2813 61.2908 51.3665 64.1881 51.1431V51.1466Z" fill="white"/>
<path d="M55.7858 31.7731C56.7598 32.7644 59.5594 37.8959 59.4651 39.2503C59.1824 43.2647 54.1731 45.1148 51.4573 41.9277C50.9127 41.2889 48.4483 37.1628 48.2667 36.4577C47.0031 31.5497 52.4836 28.401 55.7893 31.7731H55.7858Z" fill="white"/>
<path d="M97.2177 31.7731C100.523 28.401 106.004 31.5497 104.74 36.4577C104.562 37.1453 102.199 41.1178 101.672 41.7532C98.9596 45.0135 93.8421 43.4915 93.5419 39.2538C93.4477 37.8994 96.2472 32.7679 97.2212 31.7766L97.2177 31.7731Z" fill="white"/>
<path d="M25.2207 73.2886C26.8684 71.634 31.3854 71.7527 33.6335 71.9901C39.0092 72.566 38.9708 80.0712 34.1571 80.881C32.5932 81.1428 28.2402 81.1289 26.823 80.5913C23.9222 79.4882 23.039 75.4738 25.2172 73.2886H25.2207Z" fill="white"/>
<path d="M73.3164 25.2034C75.4982 23.0181 79.5195 23.9083 80.6191 26.8056C81.1567 28.2229 81.1706 32.5758 80.9088 34.1397C80.099 38.9535 72.5938 38.9919 72.0179 33.6161C71.784 31.4274 71.7107 26.8126 73.3164 25.2034Z" fill="white"/>
<path d="M116.745 48.1656C120.923 47.2999 124.166 51.3108 121.737 54.9447C120.822 56.3165 115.837 59.2418 114.204 59.3849C110.067 59.748 107.686 54.243 110.999 51.3771C111.582 50.8744 116.099 48.2983 116.745 48.1656Z" fill="white"/>
<path d="M127.779 73.2885C129.919 75.4353 129.064 79.495 126.174 80.5911C124.756 81.1287 120.403 81.1427 118.839 80.8809C114.026 80.071 113.987 72.5659 119.363 71.9899C121.611 71.749 126.128 71.6338 127.776 73.2885H127.779Z" fill="white"/>
<path d="M33.7033 48.169C34.5515 47.9944 35.6407 48.0259 36.4819 48.2423C37.2464 48.4378 41.9415 51.2269 42.4511 51.8308C45.4881 55.4437 42.0322 60.4949 37.6025 59.0671C36.255 58.6343 32.2127 56.2117 31.3994 55.1191C29.6191 52.7279 30.6105 48.8148 33.7068 48.1725L33.7033 48.169Z" fill="white"/>
<path d="M138.835 35.962C142.538 35.9306 144.549 40.0462 142.468 43.1215C141.864 44.0152 137.337 46.7799 136.255 47.0626C132.062 48.1482 128.641 44.2281 130.917 40.5314C131.877 38.9745 137.03 35.9759 138.835 35.9585V35.962Z" fill="white"/>
<path d="M39.9936 9.63101C41.4074 9.48091 42.8281 10.0499 43.7986 11.0518C44.4199 11.6871 46.8704 15.9074 47.0834 16.7277C48.4797 22.114 42.2836 25.0916 38.908 20.421C38.5136 19.8764 36.4331 16.3193 36.3109 15.8481C35.5569 13.0066 36.8659 9.95914 39.9936 9.63101Z" fill="white"/>
<path d="M111.987 9.63107C115.509 9.25755 117.436 12.3783 116.759 15.6212C116.57 16.5323 113.715 21.0424 112.951 21.6672C109.418 24.5541 104.915 21.4089 105.843 16.9477C106.011 16.1518 108.458 11.8721 109.062 11.2089C109.795 10.4025 110.894 9.74277 111.987 9.62758V9.63107Z" fill="white"/>
<path d="M13.963 35.9585C15.8376 35.8817 21.1016 38.9361 22.0825 40.5313C24.369 44.2385 20.8782 48.1307 16.7452 47.0626C15.6595 46.7833 11.132 44.0151 10.5281 43.1215C8.4965 40.1159 10.3396 36.112 13.9595 35.9585H13.963Z" fill="white"/>
</g>
<defs>
<clipPath id="clip0_522_171">
<rect width="153" height="153" fill="white"/>
</clipPath>
</defs>
</svg>
