<svg width="23" height="23" viewBox="0 0 23 23" fill="none" xmlns="http://www.w3.org/2000/svg">
<path d="M17.8899 4.87451C18.2023 4.8746 18.4553 5.12847 18.4553 5.44092C18.4552 5.75329 18.2023 6.00626 17.8899 6.00635C17.5774 6.00635 17.3236 5.75335 17.3235 5.44092C17.3235 5.12841 17.5774 4.87451 17.8899 4.87451Z" fill="white" stroke="#FBFBFB" stroke-width="1.13168"/>
<path d="M1.48059 9.62853C1.48059 6.23375 1.48059 4.53636 2.34511 3.34644C2.62432 2.96215 2.96227 2.6242 3.34656 2.34499C4.53648 1.48047 6.23387 1.48047 9.62865 1.48047H13.7027C17.0975 1.48047 18.7949 1.48047 19.9848 2.34499C20.3691 2.6242 20.707 2.96215 20.9862 3.34644C21.8507 4.53636 21.8507 6.23375 21.8507 9.62853V13.7026C21.8507 17.0973 21.8507 18.7947 20.9862 19.9847C20.707 20.3689 20.3691 20.7069 19.9848 20.9861C18.7949 21.8506 17.0975 21.8506 13.7027 21.8506H9.62865C6.23387 21.8506 4.53648 21.8506 3.34656 20.9861C2.96227 20.7069 2.62432 20.3689 2.34511 19.9847C1.48059 18.7947 1.48059 17.0973 1.48059 13.7026V9.62853Z" stroke="#FBFBFB" stroke-width="1.69751" stroke-linejoin="round"/>
<path d="M16.1924 11.6655C16.1924 14.1656 14.1657 16.1922 11.6657 16.1922C9.16564 16.1922 7.13897 14.1656 7.13897 11.6655C7.13897 9.16552 9.16564 7.13884 11.6657 7.13884C14.1657 7.13884 16.1924 9.16552 16.1924 11.6655Z" stroke="#FBFBFB" stroke-width="1.69751" stroke-linejoin="round"/>
</svg>
