<svg width="113" height="35" viewBox="0 0 113 35" fill="none" xmlns="http://www.w3.org/2000/svg">
<g clip-path="url(#clip0_203_673)">
<path d="M-3.20761e-05 29.1793L5.27881 13.285L9.10242 13.2046L11.5407 23.1171L12.0779 22.8026L16.9448 13.4118L20.6889 13.2777L21.602 29.2646L21.243 29.628L18.2964 29.6353C17.8941 29.2914 17.8724 20.6103 17.6965 19.2472C17.6435 18.8375 17.7688 18.5473 17.311 18.9936L11.9021 29.4231L10.0854 29.5499L6.97257 18.7522L3.58023 29.6377L-0.00244141 29.6621V29.1768L-3.20761e-05 29.1793Z" fill="#2B2965"/>
<path d="M76.9323 7.83983C77.4768 8.37386 73.817 10.7734 73.4195 10.9636C63.9797 15.4334 58.1612 1.60211 48.707 3.49683L43.9991 5.53787C48.3143 0.587683 56.4096 -1.8679 62.2498 1.67526C65.5506 3.67728 67.2926 7.17411 71.3426 8.02515C73.152 8.40556 75.1614 8.38362 76.9323 7.83983Z" fill="#2B2965"/>
<path d="M103.982 8.32509C104.04 8.32021 104.396 7.80325 104.582 8.20316C101.274 12.0975 96.0167 12.4706 91.6799 10.0637C86.8709 7.39358 84.9579 3.72117 78.7081 3.26517C76.0024 3.06765 74.6748 4.11621 72.3667 5.16965C75.9349 1.22169 81.1824 -0.295061 86.4035 0.348707C91.5112 0.977844 95.3228 8.32509 99.6524 8.32509C101.045 8.32509 102.618 8.42994 103.98 8.32509H103.982Z" fill="#4C84C2"/>
<path d="M49.4058 8.32509C49.4636 8.32021 49.8202 7.80325 50.0057 8.20317C46.6977 12.0975 41.4405 12.4706 37.1037 10.0638C32.2947 7.39358 30.3817 3.72117 24.1319 3.26517C21.5057 3.07497 20.0264 4.0772 17.7905 5.16965C21.3154 1.21438 26.652 -0.290182 31.8297 0.348709C36.9857 0.985161 40.6213 8.32509 45.0786 8.32509C46.4712 8.32509 48.0445 8.42995 49.4058 8.32509Z" fill="#4C84C2"/>
<path d="M63.4714 35L65.1531 23.1196L62.751 23.9682C63.11 22.6831 64.8784 21.4882 65.3386 20.5152C65.7289 19.691 65.7241 16.9477 66.0975 16.6746L69.2417 16.5697L69.0008 18.5083C79.6958 17.2427 76.489 31.4471 67.5672 29.6718L66.8372 35.0024H63.4714V35ZM68.0395 26.9992C72.7015 28.0234 74.4049 20.0422 68.796 20.9712L68.0395 26.9992Z" fill="#2B2965"/>
<path d="M94.9638 18.7546L93.5399 29.5597L90.5282 29.6816C90.3403 28.2599 89.7838 29.2817 88.9477 29.5377C83.2617 31.2813 82.0667 23.6292 85.4614 20.4445C87.9743 18.0889 91.7907 18.3425 94.9614 18.7571L94.9638 18.7546ZM91.3619 21.4199C88.5261 20.8542 86.0951 23.7511 87.2154 26.4506C87.7575 27.7576 90.0319 27.3138 90.6174 26.3701C90.8655 25.9702 91.5378 21.5979 91.3619 21.4199Z" fill="#2B2965"/>
<path d="M28.794 18.5742C37.5904 17.2842 37.0315 29.5987 29.4397 29.9181C21.8479 30.2376 21.725 19.613 28.794 18.5742ZM29.2686 21.2175C27.211 21.6443 26.1943 25.9458 28.1892 26.8139C32.1357 28.5257 33.2922 20.3811 29.2686 21.2175Z" fill="#2B2965"/>
<path d="M54.9929 18.5669C64.0448 17.0013 63.7509 29.945 55.417 29.9255C48.6082 29.9084 48.3914 19.7081 54.9929 18.5669ZM55.7133 21.2175C53.6582 21.6418 52.6366 25.9458 54.634 26.8139C58.631 28.5477 59.7682 20.3835 55.7133 21.2175Z" fill="#2B2965"/>
<path d="M43.7583 29.6645C43.4595 29.3817 45.2521 23.0269 44.5413 21.4784C43.9245 20.1397 41.6453 21.8125 41.2454 22.644C40.7418 23.6975 40.4334 29.3646 40.1395 29.6523L36.8893 29.4304L38.4505 18.857L41.5923 18.7497L41.7104 19.7203C45.2135 17.4646 48.2758 18.0523 48.0806 22.7513C48.0469 23.5682 47.3361 28.8452 47.0832 29.2622C46.5989 30.0644 44.6377 29.506 43.7559 29.6645H43.7583Z" fill="#2B2965"/>
<path d="M111.316 16.5697L110.836 18.7497H113V21.1785H110.357C110.42 22.1978 109.323 26.1043 110.099 26.6481C111.017 27.0773 111.684 26.4408 112.518 26.2701C112.689 28.7281 112.781 29.8425 109.986 29.9133C104.89 30.0449 106.712 24.3047 106.991 21.1736H105.066L105.309 18.7522H107.711L107.95 16.5673H111.316V16.5697Z" fill="#2B2965"/>
<path d="M104.1 22.1466C103.293 21.8808 102.033 21.337 101.223 21.2736C100.852 21.2443 100.765 21.1419 100.498 21.5467C100.238 22.5636 103.461 23.9877 103.811 25.7215C104.632 29.8157 98.8331 30.7424 96.2118 28.8988L96.4214 26.5237C96.7876 26.2043 99.8113 27.7308 100.491 26.6359C99.3801 24.6095 96.366 23.9535 96.9442 21.1127C97.4984 18.3913 101.161 18.0474 103.305 18.9497C105.136 19.7203 104.032 20.5859 104.1 22.1466Z" fill="#2B2965"/>
<path d="M82.7051 13.1729L80.5295 29.6523L77.5732 29.6279L77.2239 29.1183L79.7392 13.1655L82.7051 13.1729Z" fill="#2B2965"/>
</g>
<defs>
<clipPath id="clip0_203_673">
<rect width="113" height="35" fill="white"/>
</clipPath>
</defs>
</svg>
