<svg width="110" height="34" viewBox="0 0 110 34" fill="none" xmlns="http://www.w3.org/2000/svg">
<g clip-path="url(#clip0_180_101)">
<path d="M3.14182e-06 28.3456L5.1387 12.9055L8.8608 12.8273L11.2343 22.4566L11.7573 22.1511L16.495 13.0286L20.1397 12.8984L21.0286 28.4285L20.6791 28.7814L17.8107 28.7885C17.419 28.4545 17.3979 20.0215 17.2267 18.6973C17.1751 18.2993 17.2971 18.0174 16.8515 18.4509L11.5861 28.5825L9.8177 28.7056L6.78749 18.2164L3.48522 28.7909L-0.00234222 28.8146V28.3432L3.14182e-06 28.3456Z" fill="white"/>
<path d="M74.8899 7.61583C75.4199 8.13461 71.8573 10.4655 71.4703 10.6503C62.2812 14.9924 56.6171 1.55633 47.4139 3.39692L42.8311 5.37964C47.0316 0.570893 54.912 -1.81453 60.5972 1.6274C63.8104 3.57222 65.5061 6.96914 69.4486 7.79586C71.21 8.1654 73.166 8.14408 74.8899 7.61583Z" fill="white"/>
<path d="M101.221 8.08723C101.278 8.08249 101.625 7.5803 101.805 7.96879C98.5851 11.7518 93.4675 12.1143 89.2459 9.77621C84.5645 7.18233 82.7023 3.61485 76.6184 3.17188C73.9846 2.98 72.6923 3.99861 70.4454 5.02195C73.9189 1.18679 79.0271 -0.286631 84.1095 0.338743C89.0817 0.949905 92.792 8.08723 97.0067 8.08723C98.3623 8.08723 99.8938 8.18909 101.219 8.08723H101.221Z" fill="white"/>
<path d="M48.0941 8.08723C48.1504 8.08249 48.4975 7.5803 48.6781 7.96879C45.4579 11.7518 40.3403 12.1143 36.1186 9.77621C31.4373 7.18233 29.5751 3.61485 23.4912 3.17188C20.9347 2.98711 19.4947 3.9607 17.3182 5.02195C20.7494 1.17968 25.9444 -0.281893 30.9846 0.338744C36.0037 0.957012 39.5429 8.08723 43.8818 8.08723C45.2374 8.08723 46.7689 8.18909 48.0941 8.08723Z" fill="white"/>
<path d="M61.7863 34L63.4234 22.459L61.0851 23.2834C61.4345 22.035 63.156 20.8742 63.604 19.9291C63.9839 19.1284 63.9792 16.4635 64.3428 16.1981L67.4035 16.0963L67.1689 17.9795C77.58 16.7501 74.4583 30.5486 65.7734 28.8241L65.0628 34.0024H61.7863V34ZM66.2331 26.2278C70.7714 27.2227 72.4296 19.4695 66.9696 20.372L66.2331 26.2278Z" fill="white"/>
<path d="M92.4426 18.2188L91.0565 28.7151L88.1248 28.8336C87.9418 27.4525 87.4001 28.4451 86.5862 28.6938C81.0512 30.3875 79.8879 22.9541 83.1925 19.8604C85.6387 17.5721 89.3538 17.8184 92.4403 18.2211L92.4426 18.2188ZM88.9363 20.8079C86.1758 20.2583 83.8093 23.0725 84.8999 25.6948C85.4276 26.9645 87.6416 26.5334 88.2116 25.6167C88.4531 25.2282 89.1075 20.9808 88.9363 20.8079Z" fill="white"/>
<path d="M28.0295 18.0435C36.5924 16.7904 36.0483 28.753 28.658 29.0633C21.2678 29.3736 21.1482 19.0526 28.0295 18.0435ZM28.4915 20.6113C26.4886 21.0258 25.4988 25.2045 27.4408 26.0478C31.2825 27.7107 32.4083 19.7988 28.4915 20.6113Z" fill="white"/>
<path d="M53.533 18.0364C62.3445 16.5156 62.0584 29.0894 53.9458 29.0704C47.3177 29.0539 47.1067 19.145 53.533 18.0364ZM54.2342 20.6113C52.2336 21.0235 51.2392 25.2045 53.1835 26.0478C57.0745 27.732 58.1815 19.8012 54.2342 20.6113Z" fill="white"/>
<path d="M42.5965 28.817C42.3057 28.5422 44.0506 22.369 43.3588 20.8648C42.7583 19.5643 40.5396 21.1893 40.1503 21.9971C39.6601 23.0204 39.3599 28.5256 39.0738 28.8051L35.9099 28.5896L37.4297 18.3183L40.488 18.214L40.603 19.1568C44.0131 16.9657 46.9941 17.5365 46.8041 22.1013C46.7713 22.8949 46.0794 28.021 45.8331 28.4261C45.3617 29.2055 43.4526 28.663 42.5942 28.817H42.5965Z" fill="white"/>
<path d="M108.361 16.0963L107.894 18.214H110V20.5734H107.427C107.488 21.5636 106.421 25.3585 107.176 25.8867C108.07 26.3036 108.719 25.6854 109.531 25.5195C109.697 27.9073 109.787 28.9899 107.066 29.0586C102.105 29.1865 103.879 23.6103 104.151 20.5687H102.277L102.514 18.2164H104.852L105.084 16.0939H108.361V16.0963Z" fill="white"/>
<path d="M101.336 21.5138C100.551 21.2556 99.3239 20.7274 98.5359 20.6658C98.1747 20.6374 98.0902 20.5379 97.8299 20.9311C97.5766 21.9189 100.715 23.3023 101.055 24.9866C101.855 28.9638 96.2092 29.864 93.6575 28.0732L93.8615 25.7659C94.218 25.4556 97.1615 26.9385 97.8229 25.8749C96.7416 23.9064 93.8076 23.2691 94.3705 20.5094C94.9099 17.8658 98.4749 17.5318 100.562 18.4083C102.345 19.1568 101.271 19.9978 101.336 21.5138Z" fill="white"/>
<path d="M80.5094 12.7965L78.3915 28.8051L75.5138 28.7814L75.1737 28.2864L77.6222 12.7894L80.5094 12.7965Z" fill="white"/>
</g>
<defs>
<clipPath id="clip0_180_101">
<rect width="110" height="34" fill="white"/>
</clipPath>
</defs>
</svg>
